M48
; DRILL file {KiCad 9.0.7} date 2026-02-11T23:35:25+1100
; FORMAT={-:-/ absolute / inch / decimal}
; #@! TF.CreationDate,2026-02-11T23:35:25+11:00
; #@! TF.GenerationSoftware,Kicad,Pcbnew,9.0.7
; #@! TF.FileFunction,NonPlated,1,4,NPTH
FMAT,2
INCH
; #@! TA.AperFunction,NonPlated,NPTH,ComponentDrill
T1C0.0670
; #@! TA.AperFunction,NonPlated,NPTH,ComponentDrill
T2C0.0866
; #@! TA.AperFunction,NonPlated,NPTH,ComponentDrill
T3C0.1063
; #@! TA.AperFunction,NonPlated,NPTH,ComponentDrill
T4C0.1260
; #@! TA.AperFunction,NonPlated,NPTH,ComponentDrill
T5C0.1350
%
G90
G05
T1
X6.7657Y-2.4213
X6.7667Y-4.9961
X7.1988Y-2.4213
X7.1998Y-4.9961
X7.5108Y-2.4213
X7.5108Y-4.9961
X7.9439Y-2.4213
X7.9439Y-4.9961
X8.2549Y-4.9961
X8.2559Y-2.4213
X8.688Y-4.9961
X8.689Y-2.4213
T2
X4.0682Y-4.1056
X4.0682Y-4.6345
X4.5971Y-4.1056
X4.5971Y-4.6345
T3
X6.6348Y-3.0487
X6.6348Y-4.3282
X8.8199Y-3.0487
X8.8199Y-4.3282
T4
X3.5039Y-2.2244
X5.3937Y-5.1772
X9.0157Y-2.2244
X9.0157Y-5.1772
T5
X6.9823Y-2.4213
X6.9833Y-4.9961
X7.7274Y-2.4213
X7.7274Y-4.9961
X8.4715Y-4.9961
X8.4724Y-2.4213
M30
