%TF.GenerationSoftware,KiCad,Pcbnew,9.0.7*%
%TF.CreationDate,2026-02-11T23:35:25+11:00*%
%TF.ProjectId,detentOne,64657465-6e74-44f6-9e65-2e6b69636164,rev?*%
%TF.SameCoordinates,Original*%
%TF.FileFunction,Soldermask,Top*%
%TF.FilePolarity,Negative*%
%FSLAX46Y46*%
G04 Gerber Fmt 4.6, Leading zero omitted, Abs format (unit mm)*
G04 Created by KiCad (PCBNEW 9.0.7) date 2026-02-11 23:35:25*
%MOMM*%
%LPD*%
G01*
G04 APERTURE LIST*
G04 Aperture macros list*
%AMRoundRect*
0 Rectangle with rounded corners*
0 $1 Rounding radius*
0 $2 $3 $4 $5 $6 $7 $8 $9 X,Y pos of 4 corners*
0 Add a 4 corners polygon primitive as box body*
4,1,4,$2,$3,$4,$5,$6,$7,$8,$9,$2,$3,0*
0 Add four circle primitives for the rounded corners*
1,1,$1+$1,$2,$3*
1,1,$1+$1,$4,$5*
1,1,$1+$1,$6,$7*
1,1,$1+$1,$8,$9*
0 Add four rect primitives between the rounded corners*
20,1,$1+$1,$2,$3,$4,$5,0*
20,1,$1+$1,$4,$5,$6,$7,0*
20,1,$1+$1,$6,$7,$8,$9,0*
20,1,$1+$1,$8,$9,$2,$3,0*%
%AMRotRect*
0 Rectangle, with rotation*
0 The origin of the aperture is its center*
0 $1 length*
0 $2 width*
0 $3 Rotation angle, in degrees counterclockwise*
0 Add horizontal line*
21,1,$1,$2,0,0,$3*%
G04 Aperture macros list end*
%ADD10RoundRect,0.250000X0.250000X0.475000X-0.250000X0.475000X-0.250000X-0.475000X0.250000X-0.475000X0*%
%ADD11RoundRect,0.140000X-0.170000X0.140000X-0.170000X-0.140000X0.170000X-0.140000X0.170000X0.140000X0*%
%ADD12RoundRect,0.160000X-0.197500X-0.160000X0.197500X-0.160000X0.197500X0.160000X-0.197500X0.160000X0*%
%ADD13RotRect,1.500000X1.000000X135.000000*%
%ADD14RoundRect,0.237500X0.300000X0.237500X-0.300000X0.237500X-0.300000X-0.237500X0.300000X-0.237500X0*%
%ADD15RoundRect,0.140000X-0.140000X-0.170000X0.140000X-0.170000X0.140000X0.170000X-0.140000X0.170000X0*%
%ADD16R,0.650000X1.200000*%
%ADD17RotRect,1.500000X1.000000X202.500000*%
%ADD18RotRect,1.500000X1.000000X337.500000*%
%ADD19RoundRect,0.160000X0.197500X0.160000X-0.197500X0.160000X-0.197500X-0.160000X0.197500X-0.160000X0*%
%ADD20RoundRect,0.140000X0.140000X0.170000X-0.140000X0.170000X-0.140000X-0.170000X0.140000X-0.170000X0*%
%ADD21R,2.050000X2.050000*%
%ADD22R,0.800000X0.280000*%
%ADD23R,0.280000X0.800000*%
%ADD24RoundRect,0.237500X0.237500X-0.250000X0.237500X0.250000X-0.237500X0.250000X-0.237500X-0.250000X0*%
%ADD25R,1.650000X1.650000*%
%ADD26R,0.660000X0.200000*%
%ADD27R,0.200000X0.660000*%
%ADD28R,0.900000X0.900000*%
%ADD29R,1.500000X0.900000*%
%ADD30R,0.900000X1.500000*%
%ADD31R,1.000000X2.700000*%
%ADD32R,0.600000X1.700000*%
%ADD33RoundRect,0.237500X-0.237500X0.300000X-0.237500X-0.300000X0.237500X-0.300000X0.237500X0.300000X0*%
%ADD34RotRect,1.500000X1.000000X157.500000*%
%ADD35RoundRect,0.160000X0.160000X-0.197500X0.160000X0.197500X-0.160000X0.197500X-0.160000X-0.197500X0*%
%ADD36C,1.700000*%
%ADD37R,1.700000X1.700000*%
%ADD38RotRect,1.500000X1.000000X315.000000*%
%ADD39RotRect,1.500000X1.000000X292.500000*%
%ADD40RoundRect,0.140000X0.170000X-0.140000X0.170000X0.140000X-0.170000X0.140000X-0.170000X-0.140000X0*%
%ADD41RoundRect,0.250000X0.412500X0.650000X-0.412500X0.650000X-0.412500X-0.650000X0.412500X-0.650000X0*%
%ADD42RoundRect,0.237500X-0.250000X-0.237500X0.250000X-0.237500X0.250000X0.237500X-0.250000X0.237500X0*%
%ADD43R,1.000000X1.500000*%
%ADD44RoundRect,0.237500X-0.300000X-0.237500X0.300000X-0.237500X0.300000X0.237500X-0.300000X0.237500X0*%
%ADD45RotRect,1.500000X1.000000X112.500000*%
%ADD46RotRect,1.500000X1.000000X22.500000*%
%ADD47RotRect,1.500000X1.000000X45.000000*%
%ADD48RotRect,1.500000X1.000000X247.500000*%
%ADD49R,0.650000X1.000000*%
%ADD50RotRect,1.500000X1.000000X67.500000*%
%ADD51R,1.500000X1.000000*%
%ADD52R,0.400000X1.700000*%
%ADD53RoundRect,0.237500X0.250000X0.237500X-0.250000X0.237500X-0.250000X-0.237500X0.250000X-0.237500X0*%
%ADD54R,2.200000X2.200000*%
%ADD55O,1.000000X0.350000*%
%ADD56O,0.350000X1.000000*%
%ADD57RoundRect,0.160000X-0.160000X0.197500X-0.160000X-0.197500X0.160000X-0.197500X0.160000X0.197500X0*%
%ADD58RotRect,1.500000X1.000000X225.000000*%
%ADD59C,1.200000*%
%ADD60R,1.600000X0.700000*%
%ADD61R,1.500000X1.200000*%
%ADD62R,2.200000X1.200000*%
%ADD63R,1.500000X1.600000*%
%ADD64R,0.530000X1.070000*%
%ADD65C,0.700000*%
%ADD66R,0.550000X1.100000*%
%ADD67R,0.300000X1.100000*%
%ADD68O,1.100000X2.000000*%
%ADD69O,1.200000X1.800000*%
G04 APERTURE END LIST*
D10*
%TO.C,C9*%
X134250000Y-95400000D03*
X132350000Y-95400000D03*
%TD*%
D11*
%TO.C,C4*%
X158500000Y-66000000D03*
X158500000Y-66960000D03*
%TD*%
D12*
%TO.C,R23*%
X186797500Y-94300000D03*
X185602500Y-94300000D03*
%TD*%
D13*
%TO.C,LED4*%
X127480182Y-97105351D03*
X125146729Y-99438804D03*
X121681906Y-95973981D03*
X124015359Y-93640528D03*
%TD*%
D14*
%TO.C,C18*%
X105175000Y-54000000D03*
X106900000Y-54000000D03*
%TD*%
D15*
%TO.C,C20*%
X166480000Y-64170000D03*
X165520000Y-64170000D03*
%TD*%
D16*
%TO.C,SW7*%
X107100000Y-56300000D03*
X107100000Y-60700000D03*
X104900000Y-56300000D03*
X104900000Y-60700000D03*
%TD*%
D15*
%TO.C,C19*%
X166480000Y-62200000D03*
X165520000Y-62200000D03*
%TD*%
D12*
%TO.C,R19*%
X139597500Y-91000000D03*
X138402500Y-91000000D03*
%TD*%
D17*
%TO.C,LED17*%
X103883261Y-89579359D03*
X105146117Y-92628162D03*
X100619107Y-94503311D03*
X99356251Y-91454508D03*
%TD*%
D18*
%TO.C,LED11*%
X99263863Y-130507223D03*
X100526719Y-127458420D03*
X105053729Y-129333569D03*
X103790873Y-132382372D03*
%TD*%
D19*
%TO.C,R6*%
X151402500Y-56000000D03*
X152597500Y-56000000D03*
%TD*%
D12*
%TO.C,R25*%
X177597500Y-71500000D03*
X176402500Y-71500000D03*
%TD*%
D20*
%TO.C,C13*%
X139520000Y-92500000D03*
X140480000Y-92500000D03*
%TD*%
D21*
%TO.C,U2*%
X159270000Y-70000000D03*
D22*
X157520000Y-71000000D03*
X157520000Y-70500000D03*
X157520000Y-70000000D03*
X157520000Y-69500000D03*
X157520000Y-69000000D03*
D23*
X158270000Y-68250000D03*
X158770000Y-68250000D03*
X159270000Y-68250000D03*
X159770000Y-68250000D03*
X160270000Y-68250000D03*
D22*
X161020000Y-69000000D03*
X161020000Y-69500000D03*
X161020000Y-70000000D03*
X161020000Y-70500000D03*
X161020000Y-71000000D03*
D23*
X160270000Y-71750000D03*
X159770000Y-71750000D03*
X159270000Y-71750000D03*
X158770000Y-71750000D03*
X158270000Y-71750000D03*
%TD*%
D15*
%TO.C,C15*%
X166480000Y-60230000D03*
X165520000Y-60230000D03*
%TD*%
D24*
%TO.C,R32*%
X108050000Y-116087500D03*
X108050000Y-117912500D03*
%TD*%
D25*
%TO.C,U4*%
X137200000Y-93910000D03*
D26*
X135790000Y-94710000D03*
X135790000Y-94310000D03*
X135790000Y-93910000D03*
X135790000Y-93510000D03*
X135790000Y-93110000D03*
D27*
X136400000Y-92500000D03*
X136800000Y-92500000D03*
X137200000Y-92500000D03*
X137600000Y-92500000D03*
X138000000Y-92500000D03*
D26*
X138610000Y-93110000D03*
X138610000Y-93510000D03*
X138610000Y-93910000D03*
X138610000Y-94310000D03*
X138610000Y-94710000D03*
D27*
X138000000Y-95320000D03*
X137600000Y-95320000D03*
X137200000Y-95320000D03*
X136800000Y-95320000D03*
X136400000Y-95320000D03*
%TD*%
D28*
%TO.C,U1*%
X154450000Y-97110000D03*
X154450000Y-95710000D03*
X154450000Y-94310000D03*
X153050000Y-97110000D03*
X153050000Y-95710000D03*
X153050000Y-94310000D03*
X151650000Y-97110000D03*
X151650000Y-95710000D03*
X151650000Y-94310000D03*
D29*
X163300000Y-87990000D03*
X163300000Y-89260000D03*
X163300000Y-90530000D03*
X163300000Y-91800000D03*
X163300000Y-93070000D03*
X163300000Y-94340000D03*
X163300000Y-95610000D03*
X163300000Y-96880000D03*
X163300000Y-98150000D03*
X163300000Y-99420000D03*
X163300000Y-100690000D03*
X163300000Y-101960000D03*
X163300000Y-103230000D03*
X163300000Y-104500000D03*
D30*
X161540000Y-105740000D03*
X160270000Y-105770000D03*
X159000000Y-105770000D03*
X157720000Y-105770000D03*
X156450000Y-105770000D03*
X155180000Y-105770000D03*
X153920000Y-105770000D03*
X152640000Y-105770000D03*
X151370000Y-105770000D03*
X150100000Y-105770000D03*
X148830000Y-105770000D03*
X147560000Y-105770000D03*
D29*
X145800000Y-104500000D03*
X145800000Y-103230000D03*
X145800000Y-101960000D03*
X145800000Y-100690000D03*
X145800000Y-99420000D03*
X145800000Y-98150000D03*
X145800000Y-96880000D03*
X145800000Y-95610000D03*
X145800000Y-94340000D03*
X145800000Y-93070000D03*
X145800000Y-91800000D03*
X145800000Y-90530000D03*
X145800000Y-89260000D03*
X145800000Y-87990000D03*
%TD*%
D31*
%TO.C,U5*%
X165100000Y-130300000D03*
X153900000Y-130300000D03*
D32*
X155750000Y-133500000D03*
X157000000Y-133500000D03*
X158250000Y-133500000D03*
X159500000Y-133500000D03*
X160750000Y-133500000D03*
X162000000Y-133500000D03*
X163250000Y-133500000D03*
%TD*%
D20*
%TO.C,C2*%
X152340000Y-64990000D03*
X153300000Y-64990000D03*
%TD*%
D33*
%TO.C,C17*%
X141500000Y-88362500D03*
X141500000Y-86637500D03*
%TD*%
D34*
%TO.C,LED3*%
X120836137Y-91492777D03*
X119573281Y-94541580D03*
X115046271Y-92666431D03*
X116309127Y-89617628D03*
%TD*%
D16*
%TO.C,SW8*%
X98600000Y-56300000D03*
X98600000Y-60700000D03*
X96400000Y-56300000D03*
X96400000Y-60700000D03*
%TD*%
D19*
%TO.C,R30*%
X170305000Y-117000000D03*
X171500000Y-117000000D03*
%TD*%
D12*
%TO.C,R27*%
X215097500Y-71500000D03*
X213902500Y-71500000D03*
%TD*%
D35*
%TO.C,R13*%
X157000000Y-76500000D03*
X157000000Y-77695000D03*
%TD*%
D36*
%TO.C,J1*%
X198500000Y-98120000D03*
X198500000Y-95580000D03*
X198500000Y-93040000D03*
X198500000Y-90500000D03*
X198500000Y-87960000D03*
X198500000Y-85420000D03*
D37*
X198500000Y-82880000D03*
%TD*%
D35*
%TO.C,R10*%
X101000000Y-72602500D03*
X101000000Y-73797500D03*
%TD*%
%TO.C,R17*%
X153000000Y-76500000D03*
X153000000Y-77695000D03*
%TD*%
D38*
%TO.C,LED12*%
X92619818Y-124894649D03*
X94953271Y-122561196D03*
X98418094Y-126026019D03*
X96084641Y-128359472D03*
%TD*%
D39*
%TO.C,LED13*%
X88629359Y-117166739D03*
X91678162Y-115903883D03*
X93553311Y-120430893D03*
X90504508Y-121693749D03*
%TD*%
D12*
%TO.C,R26*%
X196097500Y-71500000D03*
X194902500Y-71500000D03*
%TD*%
D40*
%TO.C,C11*%
X137000000Y-90000000D03*
X137000000Y-90960000D03*
%TD*%
D35*
%TO.C,R12*%
X101000000Y-66000000D03*
X101000000Y-67195000D03*
%TD*%
D41*
%TO.C,C1*%
X148937500Y-60000000D03*
X152062500Y-60000000D03*
%TD*%
D42*
%TO.C,R21*%
X102912500Y-56000000D03*
X101087500Y-56000000D03*
%TD*%
D20*
%TO.C,C3*%
X152340000Y-66960000D03*
X153300000Y-66960000D03*
%TD*%
D36*
%TO.C,J6*%
X141165000Y-55700000D03*
D37*
X138625000Y-55700000D03*
%TD*%
D43*
%TO.C,LED14*%
X87900000Y-108500000D03*
X91200000Y-108500000D03*
X91200000Y-113400000D03*
X87900000Y-113400000D03*
%TD*%
D35*
%TO.C,R16*%
X154000000Y-76500000D03*
X154000000Y-77695000D03*
%TD*%
D44*
%TO.C,C32*%
X112412500Y-104500000D03*
X110687500Y-104500000D03*
%TD*%
D45*
%TO.C,LED5*%
X131470641Y-104833261D03*
X128421838Y-106096117D03*
X126546689Y-101569107D03*
X129595492Y-100306251D03*
%TD*%
D46*
%TO.C,LED9*%
X116216739Y-132420641D03*
X114953883Y-129371838D03*
X119480893Y-127496689D03*
X120743749Y-130545492D03*
%TD*%
D47*
%TO.C,LED8*%
X123944649Y-128430182D03*
X121611196Y-126096729D03*
X125076019Y-122631906D03*
X127409472Y-124965359D03*
%TD*%
D48*
%TO.C,LED15*%
X90542777Y-100213863D03*
X93591580Y-101476719D03*
X91716431Y-106003729D03*
X88667628Y-104740873D03*
%TD*%
D49*
%TO.C,LED1*%
X147705000Y-70600000D03*
X146505000Y-70600000D03*
%TD*%
D15*
%TO.C,C12*%
X136980000Y-97500000D03*
X136020000Y-97500000D03*
%TD*%
%TO.C,C5*%
X155980000Y-70700000D03*
X155020000Y-70700000D03*
%TD*%
D50*
%TO.C,LED7*%
X129557223Y-121786137D03*
X126508420Y-120523281D03*
X128383569Y-115996271D03*
X131432372Y-117259127D03*
%TD*%
D19*
%TO.C,R29*%
X208305000Y-117000000D03*
X209500000Y-117000000D03*
%TD*%
%TO.C,R1*%
X150605000Y-70600000D03*
X151800000Y-70600000D03*
%TD*%
D20*
%TO.C,C14*%
X152340000Y-68930000D03*
X153300000Y-68930000D03*
%TD*%
D35*
%TO.C,R18*%
X152000000Y-76500000D03*
X152000000Y-77695000D03*
%TD*%
D51*
%TO.C,LED2*%
X112550000Y-88850000D03*
X112550000Y-92150000D03*
X107650000Y-92150000D03*
X107650000Y-88850000D03*
%TD*%
D19*
%TO.C,R7*%
X151305000Y-57500000D03*
X152500000Y-57500000D03*
%TD*%
D35*
%TO.C,R15*%
X155000000Y-76500000D03*
X155000000Y-77695000D03*
%TD*%
D36*
%TO.C,J2*%
X125660000Y-69915000D03*
X128200000Y-69915000D03*
D37*
X130740000Y-69915000D03*
%TD*%
D43*
%TO.C,LED6*%
X132200000Y-113500000D03*
X128900000Y-113500000D03*
X128900000Y-108600000D03*
X132200000Y-108600000D03*
%TD*%
D52*
%TO.C,U7*%
X108110000Y-108200000D03*
X108760000Y-108200000D03*
X109410000Y-108200000D03*
X110060000Y-108200000D03*
X110710000Y-108200000D03*
X111360000Y-108200000D03*
X112010000Y-108200000D03*
X112010000Y-113800000D03*
X111360000Y-113800000D03*
X110710000Y-113800000D03*
X110060000Y-113800000D03*
X109410000Y-113800000D03*
X108760000Y-113800000D03*
X108110000Y-113800000D03*
%TD*%
D19*
%TO.C,R28*%
X189305000Y-117000000D03*
X190500000Y-117000000D03*
%TD*%
D51*
%TO.C,LED10*%
X107550000Y-133150000D03*
X107550000Y-129850000D03*
X112450000Y-129850000D03*
X112450000Y-133150000D03*
%TD*%
D20*
%TO.C,C10*%
X133520000Y-93900000D03*
X134480000Y-93900000D03*
%TD*%
D33*
%TO.C,C16*%
X143500000Y-88362500D03*
X143500000Y-86637500D03*
%TD*%
D19*
%TO.C,R24*%
X183002500Y-94300000D03*
X184197500Y-94300000D03*
%TD*%
D53*
%TO.C,R20*%
X109987500Y-56000000D03*
X111812500Y-56000000D03*
%TD*%
D35*
%TO.C,R14*%
X156000000Y-76500000D03*
X156000000Y-77695000D03*
%TD*%
D11*
%TO.C,C6*%
X160000000Y-66980000D03*
X160000000Y-66020000D03*
%TD*%
D54*
%TO.C,U6*%
X183990000Y-90500000D03*
D55*
X185990000Y-89510000D03*
X185990000Y-90160000D03*
X185990000Y-90810000D03*
X185990000Y-91460000D03*
D56*
X184950000Y-92500000D03*
X184300000Y-92500000D03*
X183650000Y-92500000D03*
X183000000Y-92500000D03*
D55*
X181990000Y-91460000D03*
X181990000Y-90810000D03*
X181990000Y-90160000D03*
X181990000Y-89510000D03*
D56*
X183000000Y-88500000D03*
X183650000Y-88500000D03*
X184300000Y-88500000D03*
X184960000Y-88500000D03*
%TD*%
D40*
%TO.C,C7*%
X102000000Y-70020000D03*
X102000000Y-70980000D03*
%TD*%
D57*
%TO.C,R22*%
X187450000Y-93000000D03*
X187450000Y-91805000D03*
%TD*%
D36*
%TO.C,J5*%
X128800000Y-55700000D03*
X126260000Y-55700000D03*
X123720000Y-55700000D03*
X121180000Y-55700000D03*
D37*
X118640000Y-55700000D03*
%TD*%
D44*
%TO.C,C33*%
X112412500Y-106000000D03*
X110687500Y-106000000D03*
%TD*%
D40*
%TO.C,C8*%
X100500000Y-70020000D03*
X100500000Y-70980000D03*
%TD*%
D58*
%TO.C,LED16*%
X96155351Y-93569818D03*
X98488804Y-95903271D03*
X95023981Y-99368094D03*
X92690528Y-97034641D03*
%TD*%
D35*
%TO.C,R9*%
X99500000Y-73602500D03*
X99500000Y-74797500D03*
%TD*%
D59*
%TO.C,Card1*%
X86662500Y-66550000D03*
X86662500Y-74550000D03*
D60*
X97662500Y-73750000D03*
X97662500Y-72650000D03*
X97662500Y-71550000D03*
X97662500Y-70450000D03*
X97662500Y-69350000D03*
X97662500Y-68250000D03*
X97662500Y-67150000D03*
X97662500Y-66050000D03*
D61*
X96662500Y-63750000D03*
D62*
X87062500Y-63750000D03*
X87062500Y-79250000D03*
D63*
X96662500Y-78350000D03*
D60*
X97662500Y-64950000D03*
%TD*%
D64*
%TO.C,D5*%
X159950000Y-61000000D03*
X159000000Y-61000000D03*
X158050000Y-61000000D03*
X158050000Y-63300000D03*
X159000000Y-63300000D03*
X159950000Y-63300000D03*
%TD*%
D65*
%TO.C,USB1*%
X161890000Y-57080000D03*
X156110000Y-57080000D03*
D66*
X162200000Y-58160000D03*
X161400000Y-58160000D03*
D67*
X160750000Y-58160000D03*
X160250000Y-58160000D03*
X159750000Y-58160000D03*
X159250000Y-58160000D03*
X158750000Y-58160000D03*
X158250000Y-58160000D03*
X157750000Y-58160000D03*
X157250000Y-58160000D03*
D66*
X156600000Y-58160000D03*
X155800000Y-58160000D03*
D68*
X163320000Y-57610000D03*
D69*
X163320000Y-53400000D03*
D68*
X154680000Y-57610000D03*
D69*
X154680000Y-53400000D03*
%TD*%
D35*
%TO.C,R2*%
X154900000Y-107702500D03*
X154900000Y-108897500D03*
%TD*%
M02*
