%TF.GenerationSoftware,KiCad,Pcbnew,9.0.7*%
%TF.CreationDate,2026-02-11T23:35:25+11:00*%
%TF.ProjectId,detentOne,64657465-6e74-44f6-9e65-2e6b69636164,rev?*%
%TF.SameCoordinates,Original*%
%TF.FileFunction,Soldermask,Bot*%
%TF.FilePolarity,Negative*%
%FSLAX46Y46*%
G04 Gerber Fmt 4.6, Leading zero omitted, Abs format (unit mm)*
G04 Created by KiCad (PCBNEW 9.0.7) date 2026-02-11 23:35:25*
%MOMM*%
%LPD*%
G01*
G04 APERTURE LIST*
%ADD10C,2.700000*%
%ADD11C,3.200000*%
%ADD12C,1.700000*%
%ADD13R,1.700000X1.700000*%
%ADD14C,2.200000*%
%ADD15C,1.200000*%
%ADD16C,1.701800*%
%ADD17C,3.429000*%
%ADD18C,2.000000*%
%ADD19C,0.700000*%
%ADD20O,1.100000X2.000000*%
%ADD21O,1.200000X1.800000*%
G04 APERTURE END LIST*
D10*
%TO.C,REF\u002A\u002A*%
X224025000Y-109936625D03*
%TD*%
D11*
%TO.C,REF\u002A\u002A*%
X89000000Y-56500000D03*
%TD*%
D12*
%TO.C,J1*%
X198500000Y-98120000D03*
X198500000Y-95580000D03*
X198500000Y-93040000D03*
X198500000Y-90500000D03*
X198500000Y-87960000D03*
X198500000Y-85420000D03*
D13*
X198500000Y-82880000D03*
%TD*%
D11*
%TO.C,REF\u002A\u002A*%
X137000000Y-131500000D03*
%TD*%
%TO.C,REF\u002A\u002A*%
X229000000Y-56500000D03*
%TD*%
D10*
%TO.C,REF\u002A\u002A*%
X224025000Y-77436625D03*
%TD*%
%TO.C,REF\u002A\u002A*%
X168525000Y-77436625D03*
%TD*%
D14*
%TO.C,REF\u002A\u002A*%
X103332500Y-104282500D03*
%TD*%
D10*
%TO.C,REF\u002A\u002A*%
X168525000Y-109936625D03*
%TD*%
D12*
%TO.C,J6*%
X141165000Y-55700000D03*
D13*
X138625000Y-55700000D03*
%TD*%
D11*
%TO.C,REF\u002A\u002A*%
X229000000Y-131500000D03*
%TD*%
D12*
%TO.C,J2*%
X125660000Y-69915000D03*
X128200000Y-69915000D03*
D13*
X130740000Y-69915000D03*
%TD*%
D14*
%TO.C,REF\u002A\u002A*%
X116767500Y-117717500D03*
%TD*%
%TO.C,REF\u002A\u002A*%
X116767500Y-104282500D03*
%TD*%
D12*
%TO.C,J5*%
X128800000Y-55700000D03*
X126260000Y-55700000D03*
X123720000Y-55700000D03*
X121180000Y-55700000D03*
D13*
X118640000Y-55700000D03*
%TD*%
D14*
%TO.C,REF\u002A\u002A*%
X103332500Y-117717500D03*
%TD*%
D15*
%TO.C,Card1*%
X86662500Y-66550000D03*
X86662500Y-74550000D03*
%TD*%
D16*
%TO.C,SW1*%
X171850000Y-61500000D03*
D17*
X177350000Y-61500000D03*
D16*
X182850000Y-61500000D03*
D18*
X177350000Y-67400000D03*
X172350000Y-65300000D03*
%TD*%
D16*
%TO.C,SW2*%
X171875000Y-126900000D03*
D17*
X177375000Y-126900000D03*
D16*
X182875000Y-126900000D03*
D18*
X177375000Y-132800000D03*
X172375000Y-130700000D03*
%TD*%
D16*
%TO.C,SW3*%
X190775000Y-61500000D03*
D17*
X196275000Y-61500000D03*
D16*
X201775000Y-61500000D03*
D18*
X196275000Y-67400000D03*
X191275000Y-65300000D03*
%TD*%
D16*
%TO.C,SW4*%
X209675000Y-126900000D03*
D17*
X215175000Y-126900000D03*
D16*
X220675000Y-126900000D03*
D18*
X215175000Y-132800000D03*
X210175000Y-130700000D03*
%TD*%
D16*
%TO.C,SW5*%
X209700000Y-61500000D03*
D17*
X215200000Y-61500000D03*
D16*
X220700000Y-61500000D03*
D18*
X215200000Y-67400000D03*
X210200000Y-65300000D03*
%TD*%
D16*
%TO.C,SW6*%
X190775000Y-126900000D03*
D17*
X196275000Y-126900000D03*
D16*
X201775000Y-126900000D03*
D18*
X196275000Y-132800000D03*
X191275000Y-130700000D03*
%TD*%
D19*
%TO.C,USB1*%
X161890000Y-57080000D03*
X156110000Y-57080000D03*
D20*
X163320000Y-57610000D03*
D21*
X163320000Y-53400000D03*
D20*
X154680000Y-57610000D03*
D21*
X154680000Y-53400000D03*
%TD*%
M02*
