M48
; DRILL file {KiCad 9.0.7} date 2026-02-11T23:35:25+1100
; FORMAT={-:-/ absolute / inch / decimal}
; #@! TF.CreationDate,2026-02-11T23:35:25+11:00
; #@! TF.GenerationSoftware,Kicad,Pcbnew,9.0.7
; #@! TF.FileFunction,Plated,1,4,PTH
FMAT,2
INCH
; #@! TA.AperFunction,Plated,PTH,ViaDrill
T1C0.0118
; #@! TA.AperFunction,Plated,PTH,ComponentDrill
T2C0.0236
; #@! TA.AperFunction,Plated,PTH,ComponentDrill
T3C0.0276
; #@! TA.AperFunction,Plated,PTH,ComponentDrill
T4C0.0394
; #@! TA.AperFunction,Plated,PTH,ComponentDrill
T5C0.0472
; #@! TA.AperFunction,Plated,PTH,ComponentDrill
T6C0.0500
%
G90
G05
T1
X3.374Y-4.4646
X3.4094Y-4.0984
X3.4409Y-3.3425
X3.4449Y-3.2047
X3.4803Y-4.8189
X3.5512Y-2.3937
X3.5512Y-2.4606
X3.5669Y-2.6142
X3.5669Y-2.6811
X3.5669Y-2.7795
X3.5669Y-2.8465
X3.5669Y-2.937
X3.5669Y-3.0039
X3.6024Y-3.7756
X3.6063Y-3.3425
X3.6102Y-3.2047
X3.6417Y-2.3937
X3.6417Y-2.4606
X3.6496Y-2.0866
X3.6496Y-2.1535
X3.6575Y-2.6142
X3.6575Y-2.6811
X3.6575Y-2.7795
X3.6575Y-2.8465
X3.6575Y-2.937
X3.6575Y-3.0039
X3.6614Y-3.9213
X3.7283Y-5.1063
X3.7402Y-2.0866
X3.7402Y-2.1535
X3.7717Y-3.3425
X3.7756Y-3.2047
X3.8228Y-4.3268
X3.8228Y-4.3937
X3.9055Y-3.9291
X3.9055Y-4.8031
X3.9094Y-3.5236
X3.9134Y-4.3268
X3.9134Y-4.3937
X3.9173Y-2.7992
X3.9173Y-3.0
X3.937Y-3.3425
X3.9409Y-3.2047
X3.9449Y-2.6929
X3.9567Y-2.8228
X3.9882Y-2.3898
X3.9961Y-2.9764
X4.0157Y-2.8307
X4.0315Y-2.9055
X4.0472Y-2.5984
X4.0512Y-2.2835
X4.0512Y-2.8307
X4.0551Y-5.2795
X4.0709Y-3.9291
X4.0709Y-4.8031
X4.0866Y-2.8189
X4.1024Y-3.3425
X4.1063Y-3.2047
X4.1181Y-2.8583
X4.1732Y-4.4803
X4.1811Y-2.6929
X4.2165Y-2.4843
X4.2362Y-3.9291
X4.2362Y-4.8031
X4.2402Y-3.4291
X4.2559Y-2.7244
X4.2677Y-3.3425
X4.2795Y-4.189
X4.3071Y-2.374
X4.3071Y-3.2047
X4.311Y-4.6417
X4.3583Y-4.0551
X4.4016Y-3.9291
X4.4016Y-4.8031
X4.4094Y-2.9528
X4.4094Y-3.0197
X4.4252Y-5.311
X4.4331Y-3.3425
X4.437Y-3.2047
X4.4843Y-2.2047
X4.5Y-3.0197
X4.5039Y-3.4449
X4.5669Y-3.9291
X4.5669Y-4.8031
X4.6299Y-3.4882
X4.6457Y-3.2126
X4.6535Y-2.8583
X4.6535Y-2.9252
X4.7323Y-3.9291
X4.7323Y-4.8031
X4.7362Y-3.2126
X4.7362Y-3.2795
X4.7441Y-2.8583
X4.7441Y-2.9252
X4.7795Y-5.2165
X4.8031Y-4.2047
X4.8031Y-4.2717
X4.815Y-4.8031
X4.8465Y-3.6299
X4.8937Y-4.2047
X4.8937Y-4.2717
X4.9213Y-5.0157
X4.9488Y-5.3268
X4.9606Y-3.8701
X4.9921Y-4.2087
X5.0Y-4.5118
X5.0311Y-4.0477
X5.0551Y-4.6339
X5.0748Y-4.3898
X5.0787Y-4.9843
X5.1142Y-3.6102
X5.1142Y-5.3268
X5.122Y-4.7402
X5.1496Y-3.6102
X5.1496Y-3.6457
X5.1535Y-4.063
X5.1614Y-3.9803
X5.185Y-3.6457
X5.1929Y-3.9646
X5.2047Y-4.3346
X5.2047Y-4.3858
X5.2362Y-4.0118
X5.248Y-4.1102
X5.248Y-4.1772
X5.2559Y-4.6457
X5.2756Y-3.5866
X5.2756Y-4.311
X5.2756Y-4.4685
X5.2795Y-5.3268
X5.2953Y-3.7795
X5.3228Y-3.8386
X5.3258Y-3.7608
X5.3346Y-3.6299
X5.3386Y-4.1102
X5.3386Y-4.1772
X5.3543Y-4.7756
X5.3543Y-4.9449
X5.3583Y-4.5984
X5.3858Y-3.6815
X5.3858Y-3.7126
X5.3937Y-3.1772
X5.4016Y-3.6972
X5.4173Y-3.6811
X5.4173Y-3.7126
X5.4449Y-3.9173
X5.4449Y-5.3268
X5.4646Y-3.5276
X5.4921Y-2.7008
X5.4921Y-2.7677
X5.5Y-3.5276
X5.5Y-3.6894
X5.5Y-4.2756
X5.5079Y-2.9173
X5.5079Y-2.9843
X5.5079Y-4.0551
X5.5079Y-4.122
X5.5118Y-3.9646
X5.5197Y-4.7756
X5.5197Y-4.9449
X5.5236Y-4.5984
X5.5354Y-3.5827
X5.5433Y-4.0118
X5.5827Y-2.7008
X5.5827Y-2.7677
X5.5827Y-3.6181
X5.5945Y-4.1811
X5.5984Y-2.9173
X5.5984Y-2.9843
X5.5984Y-4.0551
X5.5984Y-4.122
X5.6063Y-3.5276
X5.6102Y-5.3268
X5.6496Y-3.5276
X5.685Y-4.7756
X5.685Y-4.9449
X5.689Y-4.5984
X5.7283Y-3.2323
X5.7283Y-3.2992
X5.7441Y-5.1181
X5.7441Y-5.185
X5.7756Y-5.3268
X5.7913Y-3.1142
X5.7913Y-3.1811
X5.8189Y-3.2323
X5.8189Y-3.2992
X5.8346Y-5.1181
X5.8346Y-5.185
X5.8504Y-4.7756
X5.8504Y-4.9449
X5.8543Y-4.5984
X5.874Y-4.3622
X5.874Y-4.4055
X5.8819Y-3.1142
X5.8819Y-3.1811
X5.8819Y-3.9252
X5.8819Y-3.9921
X5.9134Y-4.248
X5.9409Y-5.3268
X5.9606Y-4.248
X5.9724Y-3.9252
X5.9724Y-3.9921
X6.0079Y-3.4961
X6.0079Y-3.563
X6.0118Y-4.248
X6.0157Y-4.9449
X6.0236Y-2.8976
X6.0236Y-2.9646
X6.0315Y-2.8386
X6.0354Y-3.8858
X6.0354Y-3.9528
X6.0394Y-4.4055
X6.0512Y-2.4016
X6.0512Y-2.4331
X6.0709Y-2.8386
X6.0709Y-4.3622
X6.0748Y-4.8307
X6.0866Y-2.4016
X6.0866Y-2.4331
X6.0945Y-4.5984
X6.0945Y-4.6654
X6.0984Y-3.4961
X6.0984Y-3.563
X6.1142Y-2.8976
X6.1142Y-2.9646
X6.122Y-2.4016
X6.122Y-2.4331
X6.126Y-3.8858
X6.126Y-3.9528
X6.126Y-4.7795
X6.1299Y-2.622
X6.1299Y-2.6575
X6.1299Y-5.0
X6.1378Y-4.2559
X6.1417Y-2.8425
X6.1496Y-2.7323
X6.1614Y-2.4213
X6.1654Y-2.622
X6.1654Y-2.6575
X6.1654Y-4.315
X6.1772Y-2.8346
X6.1811Y-4.7756
X6.1811Y-5.0039
X6.185Y-4.5984
X6.185Y-4.6654
X6.2008Y-2.0866
X6.2008Y-2.1772
X6.2008Y-2.622
X6.2008Y-2.6575
X6.2047Y-2.8583
X6.2126Y-4.2441
X6.2126Y-4.437
X6.2283Y-5.0039
X6.2402Y-2.3425
X6.252Y-2.8661
X6.252Y-3.9961
X6.252Y-4.063
X6.2559Y-3.185
X6.2559Y-3.252
X6.2559Y-3.5433
X6.2559Y-3.6102
X6.2559Y-3.8622
X6.2559Y-3.9291
X6.2598Y-2.4921
X6.2638Y-3.689
X6.2638Y-3.7559
X6.2677Y-2.0866
X6.2677Y-2.1772
X6.2874Y-3.0512
X6.2874Y-3.1181
X6.2992Y-2.3425
X6.3189Y-2.9134
X6.3189Y-2.9803
X6.3346Y-2.0866
X6.3346Y-2.1772
X6.3425Y-3.9961
X6.3425Y-4.063
X6.3465Y-3.185
X6.3465Y-3.252
X6.3465Y-3.5433
X6.3465Y-3.6102
X6.3465Y-3.8622
X6.3465Y-3.9291
X6.3543Y-3.689
X6.3543Y-3.7559
X6.3583Y-2.4213
X6.3583Y-4.437
X6.3583Y-4.5
X6.3583Y-4.5472
X6.3622Y-4.5984
X6.378Y-3.0512
X6.378Y-3.1181
X6.3858Y-2.4016
X6.3858Y-2.4331
X6.3858Y-2.6732
X6.3858Y-2.7165
X6.3858Y-2.7559
X6.3858Y-2.7953
X6.4213Y-2.4016
X6.4213Y-2.4331
X6.4291Y-5.3268
X6.4331Y-2.4882
X6.4528Y-2.4016
X6.4528Y-2.4331
X6.4646Y-4.6299
X6.4646Y-4.6969
X6.4646Y-4.7638
X6.4646Y-4.8307
X6.4646Y-4.9055
X6.4646Y-4.9724
X6.4882Y-5.315
X6.5236Y-3.7638
X6.5276Y-2.126
X6.5276Y-2.1929
X6.5276Y-2.2598
X6.5276Y-2.3268
X6.5276Y-5.2795
X6.5551Y-4.6299
X6.5551Y-4.6969
X6.5551Y-4.7638
X6.5551Y-4.8307
X6.5551Y-4.9055
X6.5551Y-4.9724
X6.6181Y-2.126
X6.6181Y-2.1929
X6.6181Y-2.2598
X6.6181Y-2.3268
X6.6181Y-3.248
X6.6181Y-3.315
X6.6181Y-3.3937
X6.6181Y-3.4606
X6.6181Y-3.5354
X6.6181Y-3.6024
X6.6181Y-3.689
X6.6181Y-3.7559
X6.6181Y-4.1181
X6.7047Y-4.5394
X6.7087Y-3.248
X6.7087Y-3.315
X6.7087Y-3.3937
X6.7087Y-3.4606
X6.7087Y-3.5354
X6.7087Y-3.6024
X6.7087Y-3.689
X6.7087Y-3.7559
X6.7874Y-4.5591
X6.8189Y-3.248
X6.8189Y-3.315
X6.8189Y-3.3819
X6.8189Y-3.4488
X6.8189Y-3.5472
X6.8189Y-3.6142
X6.8189Y-3.7008
X6.8189Y-3.7677
X6.878Y-3.0039
X6.878Y-3.0945
X6.9094Y-3.248
X6.9094Y-3.315
X6.9094Y-3.3819
X6.9094Y-3.4488
X6.9094Y-3.5472
X6.9094Y-3.6142
X6.9094Y-3.7008
X6.9094Y-3.7677
X6.9409Y-3.9882
X6.9449Y-2.8622
X6.9449Y-3.0039
X6.9449Y-3.0945
X7.0Y-3.5236
X7.0118Y-3.0039
X7.0118Y-3.0945
X7.0118Y-3.248
X7.0118Y-3.315
X7.0394Y-3.5748
X7.0748Y-3.6024
X7.0787Y-3.0039
X7.0787Y-3.0945
X7.1024Y-2.815
X7.1024Y-3.5512
X7.1417Y-3.9882
X7.1654Y-3.7126
X7.2047Y-3.374
X7.2323Y-3.4094
X7.2598Y-3.4409
X7.3543Y-3.752
X7.3819Y-3.0157
X7.3819Y-3.1063
X7.3819Y-3.2795
X7.3819Y-3.3701
X7.3898Y-3.5669
X7.4173Y-3.6614
X7.4488Y-3.0157
X7.4488Y-3.1063
X7.4488Y-3.2795
X7.4488Y-3.3701
X7.4528Y-4.5354
X7.5157Y-3.0157
X7.5157Y-3.1063
X7.5157Y-3.2795
X7.5157Y-3.3701
X7.5433Y-4.5472
X7.5827Y-3.0157
X7.5827Y-3.1063
X7.5827Y-3.2795
X7.5827Y-3.3701
X7.6732Y-2.7756
X7.689Y-4.122
X7.689Y-4.2126
X7.689Y-4.2953
X7.689Y-4.3858
X7.7126Y-3.1575
X7.7205Y-2.874
X7.7559Y-4.122
X7.7559Y-4.2126
X7.7559Y-4.2953
X7.7559Y-4.3858
X7.815Y-3.1535
X7.8228Y-4.2953
X7.8228Y-4.3858
X7.8268Y-4.122
X7.8268Y-4.2126
X7.8898Y-4.2953
X7.8898Y-4.3858
X7.8937Y-4.122
X7.8937Y-4.2126
X8.063Y-4.122
X8.063Y-4.2126
X8.063Y-4.2953
X8.063Y-4.3858
X8.1299Y-4.122
X8.1299Y-4.2126
X8.1299Y-4.2953
X8.1299Y-4.3858
X8.1654Y-2.9764
X8.1654Y-3.0669
X8.1969Y-4.2953
X8.1969Y-4.3858
X8.2008Y-4.122
X8.2008Y-4.2126
X8.2008Y-4.5512
X8.2323Y-2.9764
X8.2323Y-3.0669
X8.2638Y-4.2953
X8.2638Y-4.3858
X8.2677Y-4.122
X8.2677Y-4.2126
X8.2795Y-4.5472
X8.2992Y-2.9764
X8.2992Y-3.0669
X8.3661Y-2.9764
X8.3661Y-3.0669
X8.3976Y-3.2835
X8.3976Y-3.374
X8.3976Y-3.4567
X8.3976Y-3.5472
X8.3976Y-3.6535
X8.3976Y-3.7441
X8.3976Y-3.8268
X8.3976Y-3.9173
X8.3976Y-4.0197
X8.3976Y-4.1102
X8.3976Y-4.1929
X8.3976Y-4.2835
X8.4213Y-2.7756
X8.4646Y-3.2835
X8.4646Y-3.374
X8.4646Y-3.4567
X8.4646Y-3.5472
X8.4646Y-3.6535
X8.4646Y-3.7441
X8.4646Y-3.8268
X8.4646Y-3.9173
X8.4646Y-4.0197
X8.4646Y-4.1102
X8.4646Y-4.1929
X8.4646Y-4.2835
X8.4685Y-2.9055
X8.5315Y-3.4567
X8.5315Y-3.5472
X8.5315Y-3.8268
X8.5315Y-3.9173
X8.5315Y-4.1929
X8.5315Y-4.2835
X8.5354Y-3.2835
X8.5354Y-3.374
X8.5354Y-3.6535
X8.5354Y-3.7441
X8.5354Y-4.0197
X8.5354Y-4.1102
X8.5984Y-3.4567
X8.5984Y-3.5472
X8.5984Y-3.8268
X8.5984Y-3.9173
X8.5984Y-4.1929
X8.5984Y-4.2835
X8.6024Y-3.2835
X8.6024Y-3.374
X8.6024Y-3.6535
X8.6024Y-3.7441
X8.6024Y-4.0197
X8.6024Y-4.1102
X8.7717Y-3.2835
X8.7717Y-3.374
X8.7717Y-3.4567
X8.7717Y-3.5472
X8.7717Y-3.6535
X8.7717Y-3.7441
X8.7717Y-3.8268
X8.7717Y-3.9173
X8.7717Y-4.0197
X8.7717Y-4.1102
X8.8386Y-3.2835
X8.8386Y-3.374
X8.8386Y-3.4567
X8.8386Y-3.5472
X8.8386Y-3.6535
X8.8386Y-3.7441
X8.8386Y-3.8268
X8.8386Y-3.9173
X8.8386Y-4.0197
X8.8386Y-4.1102
X8.8898Y-2.4724
X8.8898Y-2.563
X8.8898Y-2.6457
X8.8898Y-2.7362
X8.9055Y-3.4567
X8.9055Y-3.5472
X8.9055Y-3.8268
X8.9055Y-3.9173
X8.9094Y-3.2835
X8.9094Y-3.374
X8.9094Y-3.6535
X8.9094Y-3.7441
X8.9094Y-4.0197
X8.9094Y-4.1102
X8.9567Y-2.4724
X8.9567Y-2.563
X8.9567Y-2.6457
X8.9567Y-2.7362
X8.9685Y-4.7047
X8.9685Y-4.7717
X8.9685Y-4.8386
X8.9685Y-4.9055
X8.9724Y-3.4567
X8.9724Y-3.5472
X8.9724Y-3.8268
X8.9724Y-3.9173
X8.9764Y-3.2835
X8.9764Y-3.374
X8.9764Y-3.6535
X8.9764Y-3.7441
X8.9764Y-4.0197
X8.9764Y-4.1102
X9.0236Y-2.6457
X9.0236Y-2.7362
X9.0276Y-2.4724
X9.0276Y-2.563
X9.0591Y-4.7047
X9.0591Y-4.7717
X9.0591Y-4.8386
X9.0591Y-4.9055
X9.0906Y-2.6457
X9.0906Y-2.7362
X9.0945Y-2.4724
X9.0945Y-2.563
T3
X6.1461Y-2.2472
X6.3736Y-2.2472
T4
X4.6709Y-2.1929
X4.7709Y-2.1929
X4.8709Y-2.1929
X4.9472Y-2.7526
X4.9709Y-2.1929
X5.0472Y-2.7526
X5.0709Y-2.1929
X5.1472Y-2.7526
X5.4577Y-2.1929
X5.5577Y-2.1929
X7.815Y-3.263
X7.815Y-3.363
X7.815Y-3.463
X7.815Y-3.563
X7.815Y-3.663
X7.815Y-3.763
X7.815Y-3.863
T5
X3.4119Y-2.6201
X3.4119Y-2.935
T6
X6.7854Y-2.5709
X6.7864Y-5.1457
X6.9823Y-2.6535
X6.9833Y-5.2283
X7.5305Y-2.5709
X7.5305Y-5.1457
X7.7274Y-2.6535
X7.7274Y-5.2283
X8.2746Y-5.1457
X8.2756Y-2.5709
X8.4715Y-5.2283
X8.4724Y-2.6535
T2
G00X6.0898Y-2.1142
M15
G01X6.0898Y-2.0906
M16
G05
G00X6.0898Y-2.2858
M15
G01X6.0898Y-2.2504
M16
G05
G00X6.4299Y-2.1142
M15
G01X6.4299Y-2.0906
M16
G05
G00X6.4299Y-2.2858
M15
G01X6.4299Y-2.2504
M16
G05
M30
